<?xml version="1.0" encoding="UTF-8" standalone="no"?>
<svg
   version="1.1"
   width="174.89844"
   height="165.27148"
   id="svg7"
   sodipodi:docname="FederalEmblem-20August2024.svg"
   inkscape:version="1.2 (dc2aedaf03, 2022-05-15)"
   xmlns:inkscape="http://www.inkscape.org/namespaces/inkscape"
   xmlns:sodipodi="http://sodipodi.sourceforge.net/DTD/sodipodi-0.dtd"
   xmlns="http://www.w3.org/2000/svg"
   xmlns:svg="http://www.w3.org/2000/svg">
  <defs
     id="defs7" />
  <sodipodi:namedview
     id="namedview7"
     pagecolor="#505050"
     bordercolor="#eeeeee"
     borderopacity="1"
     inkscape:showpageshadow="0"
     inkscape:pageopacity="0"
     inkscape:pagecheckerboard="0"
     inkscape:deskcolor="#d1d1d1"
     showgrid="false"
     inkscape:zoom="1.8696853"
     inkscape:cx="14.708358"
     inkscape:cy="56.694033"
     inkscape:window-width="1920"
     inkscape:window-height="1046"
     inkscape:window-x="-11"
     inkscape:window-y="-11"
     inkscape:window-maximized="1"
     inkscape:current-layer="svg7" />
  <path
     id="path5"
     d="M 87.402344,2.21e-6 C 83.323893,4.5494485 79.774561,8.7965044 76.933594,13.501956 69.001683,26.631305 66.336487,40.89046 70.773438,52.423828 79.582862,76.828556 82.964844,83.024289 82.964844,102.45508 H 76.701172 C 76.309672,81.080306 68.252304,66.769055 56.273438,62.474609 51.002503,60.440642 44.166403,61.448508 37.896484,67.898437 30.138567,75.88284 27.87959,97.877018 50.652344,102.10547 c -2.410468,-3.583468 -2.203295,-11.43264 2.61914,-14.203126 3.685466,-1.841968 7.849439,-1.12064 9.794922,0.464844 3.134966,1.894486 6.146485,7.952956 6.146485,14.087892 l -10.8125,-0.0137 v 12.07617 l 22.447265,-0.0117 c -0.167584,3.54061 -1.374813,6.65884 -3.519531,9.2168 C 43.48814,118.81717 17.48828,89.701329 17.48828,54.501954 17.48828,36.22675 24.506119,19.594475 35.980469,7.132816 14.172683,23.035327 -2.9999995e-8,48.763853 -2.9999995e-8,77.820312 -2.9999995e-8,126.11757 39.151966,165.27148 87.449219,165.27148 c 48.297251,0 87.449221,-39.15391 87.449221,-87.451168 0,-29.056459 -14.17269,-54.784985 -35.98047,-70.6874972 11.47435,12.4616592 18.49219,29.0939342 18.49219,47.3691382 0,35.229617 -26.0452,64.362437 -59.927738,69.230467 -2.14983,-2.5597 -3.35955,-5.68152 -3.527344,-9.22656 l 22.445312,0.0117 0.004,-12.07617 -10.81641,0.0137 c 0,-6.134937 3.01647,-12.193407 6.14844,-14.087893 1.94548,-1.586984 6.10991,-2.308313 9.79687,-0.464844 4.81944,2.770486 5.02571,10.618158 2.61524,14.203127 22.77275,-4.228453 20.51227,-26.222631 12.75586,-34.207034 -6.26692,-6.449928 -13.10602,-7.456294 -18.37696,-5.423827 -11.97587,4.294446 -20.034278,18.605697 -20.425777,39.980471 h -6.265626 c 0,-19.432291 3.381421,-25.626524 12.195313,-50.031252 C 108.4652,40.89046 105.7991,26.631305 97.867187,13.501956 95.02622,8.7965044 91.477809,4.5494485 87.402344,2.21e-6 Z"
     style="stroke-width:0.583;fill:#ffffff;opacity:0.3" />
</svg>
