<svg xmlns="http://www.w3.org/2000/svg" height="351.664" viewBox="0 0 32 43" width="261.621" xmlns:v="https://vecta.io/nano"><path d="M22.319 12.464c-.187 0-.333-.146-.333-.323s.146-.323.333-.323.333.146.333.323c.01.177-.146.323-.333.323zM2.446 27.559c0-7.214 6.1-13.075 13.554-13.075s13.554 5.871 13.554 13.075c0 7.193-6.1 13.085-13.554 13.085-7.453-.01-13.554-5.892-13.554-13.085zM21.319 7.592c.323.083.52.396.437.708s-.416.5-.739.416-.52-.396-.437-.708.416-.5.739-.416zm.552-1.145c.187 0 .333.146.333.323s-.146.323-.333.323-.333-.146-.333-.323c-.01-.187.146-.323.333-.323zm-.281-1.166c.187 0 .333.146.333.323s-.146.323-.333.323-.333-.146-.333-.323c-.01-.177.146-.323.333-.323zm4.164 3.061c.187 0 .333.146.333.323s-.146.323-.333.323-.333-.146-.333-.323.146-.323.333-.323zm-.281-1.155c.187 0 .333.146.333.323s-.146.323-.333.323-.333-.146-.333-.323.146-.323.333-.323zm-.5-1.02c.187 0 .333.146.333.323s-.156.323-.333.323c-.187 0-.333-.146-.333-.323-.01-.177.146-.323.333-.323zm-.802-.906c.187 0 .333.146.333.323s-.146.323-.333.323-.333-.146-.333-.323.146-.323.333-.323zm-.979-.687c.187 0 .333.146.333.323s-.146.323-.333.323-.333-.146-.333-.323.146-.323.333-.323zm-1.062-.406c.187 0 .333.146.333.323s-.146.323-.333.323-.333-.146-.333-.323.156-.323.333-.323zm-1.072.094c.187 0 .333.146.333.323s-.146.323-.333.323-.333-.146-.333-.323.146-.323.333-.323zm-.791-.885c.187 0 .333.146.333.323s-.156.323-.333.323c-.187 0-.333-.146-.333-.323s.146-.323.333-.323zm-1.031-.656c.187 0 .333.146.333.323s-.146.323-.333.323-.333-.146-.333-.323.146-.323.333-.323zm-1.072-.385c.187 0 .333.146.333.323s-.146.323-.333.323-.333-.146-.333-.323.146-.323.333-.323zm-1.093-.187c.187 0 .333.146.333.323s-.146.323-.333.323-.333-.146-.333-.323c-.01-.177.146-.323.333-.323zM6.673 10.695a.62.62 0 0 1-.822-.229.568.568 0 0 1 .239-.791.62.62 0 0 1 .822.229c.156.281.052.635-.239.791zm4.31-1.978c-.323.083-.656-.104-.739-.416s.115-.635.437-.708c.323-.083.656.104.739.416s-.115.635-.437.708zM16 8.103a.593.593 0 0 1-.604-.583c0-.323.271-.583.604-.583s.604.26.604.583-.271.583-.604.583zm-5.861-1.01c-.187 0-.333-.146-.333-.323s.146-.323.333-.323.333.146.333.323-.156.323-.333.323zm.281-1.166c-.187 0-.333-.146-.333-.323s.146-.323.333-.323.333.146.333.323-.156.323-.333.323zM6.246 8.998c-.187 0-.333-.146-.333-.323s.146-.323.333-.323.333.146.333.323c.01.177-.146.323-.333.323zm.281-1.166c-.187 0-.333-.146-.333-.323s.156-.323.333-.323c.187 0 .333.146.333.323.01.177-.146.323-.333.323zm.5-1.02c-.187 0-.333-.146-.333-.323s.146-.323.333-.323.333.146.333.323c.01.177-.146.323-.333.323zm.802-.906c-.187 0-.333-.146-.333-.323s.146-.323.333-.323.333.146.333.323-.146.323-.333.323zm.979-.687c-.187 0-.333-.146-.333-.323s.146-.323.333-.323.333.146.333.323c.01.177-.146.323-.333.323zm1.062-.396c-.187 0-.333-.146-.333-.323s.146-.323.333-.323.333.146.333.323-.146.323-.333.323zm1.072.083c-.187 0-.333-.146-.333-.323s.146-.323.333-.323.333.146.333.323c.01.177-.146.323-.333.323zm.791-.874c-.187 0-.333-.146-.333-.323s.156-.323.333-.323c.187 0 .333.146.333.323s-.146.323-.333.323zm1.031-.666c-.187 0-.333-.146-.333-.323s.146-.323.333-.323.333.146.333.323-.146.323-.333.323zm1.072-.385c-.187 0-.333-.146-.333-.323s.156-.323.333-.323c.187 0 .333.146.333.323s-.146.323-.333.323zM16 6.166c-.187 0-.333-.146-.333-.323s.156-.323.333-.323c.187 0 .333.146.333.323s-.146.323-.333.323zm0-1.176c-.187 0-.333-.146-.333-.323s.156-.323.333-.323c.187 0 .333.146.333.323s-.146.323-.333.323zm0-1.176c-.187 0-.333-.146-.333-.323s.156-.323.333-.323c.187 0 .333.146.333.323s-.146.323-.333.323zm-1.062-1.02c-.187 0-.344-.146-.344-.323s.156-.323.344-.323.333.146.333.323c0 .187-.156.323-.333.323zM25.91 9.674c.291.156.396.51.239.791s-.531.385-.822.229a.578.578 0 0 1-.239-.791.62.62 0 0 1 .822-.229zm-7.755 1.707c-.187 0-.333-.146-.333-.323s.146-.323.333-.323.333.146.333.323c.01.177-.146.323-.333.323zm-8.474 1.083c-.187 0-.333-.146-.333-.323s.156-.323.333-.323c.187 0 .333.146.333.323s-.146.323-.333.323zm4.164-1.083c-.187 0-.333-.146-.333-.323s.156-.323.333-.323c.187 0 .333.146.333.323s-.146.323-.333.323z" fill="#fff"/><path d="M18.498 9.039c.094.198.198.344.333.468l-.926-.115a1.42 1.42 0 0 0 .448-.375.64.64 0 0 0 .146.021zm-4.997 0a.76.76 0 0 0 .156-.021c.115.156.271.281.437.375l-.926.115c.146-.135.26-.291.333-.468zm-1.801.739l-.812.198c.146-.177.239-.396.26-.625a1.39 1.39 0 0 0 .552.427zm-3.092.979a1.58 1.58 0 0 0 .177-.406l.042-.01a.7.7 0 0 0 .219-.094 1.5 1.5 0 0 0 .416.187l-.854.323zM16 8.758c.083.219.239.406.427.552-.146 0-.281-.01-.427-.01l-.427.01c.198-.146.344-.333.427-.552zm6.954 1.478c.062.042.146.073.219.094l.042.01c.031.146.094.281.177.406l-.864-.333a1.2 1.2 0 0 0 .427-.177zm-1.843-.26l-.812-.198a1.29 1.29 0 0 0 .541-.427 1.25 1.25 0 0 0 .271.625zm1.051-2.54c.229-.094.396-.291.448-.531.364.083.77.177 1.103.312a2.56 2.56 0 0 1 .739.427c.177.448.281.968.344 1.603-.219.094-.364.312-.448.531-.135.333-.135.677.239.937a.59.59 0 0 1-.635-.614.75.75 0 0 0 .156-.281c.104-.396-.135-.791-.541-.885-.406-.104-.812.135-.916.52-.01.042-.021.083-.021.125-.344.406-1.031.198-1.062-.333.635.125.906-.187 1.01-.604.094-.344.052-.697-.354-.906-.021-.115-.031-.219-.062-.302zM11.43 6c1.208-.645 2.779-.76 3.997-.583V5.5a.621.621 0 0 0 .146.843c-.229.073-.406.239-.468.531-.458.104-.583.437-.583.791 0 .427.177.791.822.822-.073.239-.302.406-.573.406a.59.59 0 0 1-.562-.396c.021-.062.021-.125.021-.187 0-.406-.344-.729-.76-.729s-.76.323-.76.729a.63.63 0 0 0 .094.344.593.593 0 0 1-.448.531.6.6 0 0 1-.656-.26c.614-.187.697-.583.583-.999-.094-.344-.302-.635-.77-.625a.688.688 0 0 0-.333-.333c.062-.333.135-.666.25-.968zm5.132-.593c1.218-.177 2.8-.062 3.997.583a4.34 4.34 0 0 1 .239.979.69.69 0 0 0-.333.333c-.468-.01-.677.281-.76.625-.115.416-.031.812.583.999-.135.208-.396.323-.656.26a.586.586 0 0 1-.448-.531.66.66 0 0 0 .094-.344c0-.406-.333-.729-.76-.729-.416 0-.76.323-.76.729a1.08 1.08 0 0 0 .021.187.6.6 0 0 1-.562.396.6.6 0 0 1-.573-.406c.645-.031.822-.396.822-.822 0-.364-.125-.687-.583-.791a.72.72 0 0 0-.468-.531c.146-.115.25-.302.25-.5 0-.125-.042-.25-.104-.344zM8.297 7.218c.333-.125.739-.229 1.103-.312.052.239.219.437.448.531a.66.66 0 0 0-.042.291c-.416.208-.448.562-.354.906.115.416.375.729 1.01.604-.021.531-.718.739-1.062.333 0-.042-.01-.083-.021-.125-.104-.396-.52-.625-.926-.52s-.645.5-.541.885c.031.104.083.208.156.281.01.219-.104.427-.312.541a.73.73 0 0 1-.323.073c.375-.25.375-.593.239-.937-.094-.208-.229-.427-.458-.52.052-.635.156-1.155.333-1.603.187-.146.427-.312.75-.427zm8.786 3.727L16 11.33l-1.072-.385L16 10.559zm-8.11 1.415l-.094.364-.031.135-.073-.042-.364-.198.094-.344.021-.073.125.042zm14.053 0l.448-.167.021.073.094.354-.354.187-.073.042-.031-.135z" fill="#e62644"/><path d="M21.111 9.976c-.146-.177-.239-.396-.26-.625-.135.187-.333.333-.541.427l.802.198zm1.843.26c-.125.083-.271.146-.416.187l.864.333a1.27 1.27 0 0 1-.177-.406l-.042-.01c-.083-.021-.156-.062-.229-.104zM16 8.758c-.083.219-.229.406-.427.552L16 9.3l.427.01A1.301 1.301 0 0 1 16 8.758zm-7.391 1.999l.864-.333c-.146-.042-.291-.104-.416-.187-.062.042-.146.073-.219.094l-.042.01c-.052.146-.104.291-.187.416zm3.092-.979a1.29 1.29 0 0 1-.541-.427c-.031.229-.115.448-.26.625l.802-.198zm1.801-.739c-.073.177-.187.333-.333.468l.926-.115a1.27 1.27 0 0 1-.437-.375c-.052.01-.104.021-.156.021zm4.997 0a.614.614 0 0 1-.146-.021c-.115.156-.271.281-.448.375l.926.115a1.49 1.49 0 0 1-.323-.437zm7.412.635a.619.619 0 0 0-.822.229c-.156.281-.052.635.239.791a.62.62 0 0 0 .822-.229.56.56 0 0 0-.239-.791zm-4.591-2.082c-.323-.083-.656.104-.739.416s.115.635.437.708c.323.083.656-.104.739-.416s-.115-.635-.437-.708zm.552-1.145c-.187 0-.333.146-.333.323s.156.323.333.323c.187 0 .333-.146.333-.323a.32.32 0 0 0-.333-.323zm-.281-1.166c-.187 0-.333.146-.333.323s.156.323.333.323c.187 0 .333-.146.333-.323s-.146-.323-.333-.323zm4.164 3.061c-.187 0-.333.146-.333.323s.146.323.333.323.333-.146.333-.323-.146-.323-.333-.323zm-.281-1.155c-.187 0-.333.146-.333.323s.146.323.333.323.333-.146.333-.323-.146-.323-.333-.323zm-.5-1.02c-.187 0-.333.146-.333.323s.156.323.333.323c.187 0 .333-.146.333-.323s-.146-.323-.333-.323zm-.802-.906c-.187 0-.333.146-.333.323s.146.323.333.323.333-.146.333-.323-.146-.323-.333-.323zm-.979-.687c-.187 0-.333.146-.333.323s.146.323.333.323.333-.146.333-.323-.146-.323-.333-.323zm-1.062-.406c-.187 0-.333.146-.333.323s.146.323.333.323.333-.146.333-.323c.01-.177-.146-.323-.333-.323zm-1.072.094c-.187 0-.333.146-.333.323s.146.323.333.323.333-.146.333-.323-.146-.323-.333-.323zm-.791-.885c-.187 0-.333.146-.333.323s.146.323.333.323.333-.146.333-.323c.01-.177-.146-.323-.333-.323zm-1.031-.656c-.187 0-.333.146-.333.323s.146.323.333.323.333-.146.333-.323-.146-.323-.333-.323zm-1.072-.385c-.187 0-.333.146-.333.323s.146.323.333.323.333-.146.333-.323c.01-.177-.146-.323-.333-.323zm-1.093-.187c-.187 0-.333.146-.333.323s.146.323.333.323.333-.146.333-.323-.146-.323-.333-.323zM6.673 10.695c.291-.156.396-.51.239-.791a.616.616 0 0 0-.822-.229c-.291.156-.396.51-.239.791s.531.385.822.229zm4.31-1.978c.323-.083.52-.396.437-.708s-.416-.5-.739-.416-.52.396-.437.708a.61.61 0 0 0 .739.416zM16 8.103c.333 0 .604-.26.604-.583A.593.593 0 0 0 16 6.937a.593.593 0 0 0-.604.583c0 .323.271.583.604.583zm-5.861-1.01c.187 0 .333-.146.333-.323s-.146-.323-.333-.323-.333.146-.333.323c-.01.177.146.323.333.323zm.281-1.166c.187 0 .333-.146.333-.323s-.146-.323-.333-.323-.333.146-.333.323c-.01.177.146.323.333.323zM6.246 8.998c.187 0 .333-.146.333-.323s-.146-.323-.333-.323-.333.146-.333.323.146.323.333.323zm.281-1.166c.187 0 .333-.146.333-.323a.333.333 0 0 0-.333-.323c-.187 0-.333.146-.333.323s.146.323.333.323zm.5-1.02c.187 0 .333-.146.333-.323s-.146-.323-.333-.323-.333.146-.333.323.156.323.333.323zm.802-.906c.187 0 .333-.146.333-.323s-.146-.323-.333-.323-.333.146-.333.323.146.323.333.323zm.979-.687c.187 0 .333-.146.333-.323s-.146-.323-.333-.323-.333.146-.333.323.156.323.333.323zm1.062-.396c.187 0 .333-.146.333-.323s-.146-.323-.333-.323-.333.146-.333.323.146.323.333.323zm1.072.083c.187 0 .333-.146.333-.323s-.146-.323-.333-.323-.333.146-.333.323.146.323.333.323zm.791-.874c.187 0 .333-.146.333-.323s-.146-.323-.333-.323-.333.146-.333.323.146.323.333.323zm1.031-.666c.187 0 .333-.146.333-.323s-.146-.323-.333-.323-.333.146-.333.323.146.323.333.323zm1.072-.385c.187 0 .333-.146.333-.323s-.146-.323-.333-.323-.333.146-.333.323.146.323.333.323zM16 6.166c.187 0 .333-.146.333-.323s-.146-.323-.333-.323-.333.146-.333.323.146.323.333.323zm0-1.176c.187 0 .333-.146.333-.323s-.146-.323-.333-.323-.333.146-.333.323.146.323.333.323zm0-1.176c.187 0 .333-.146.333-.323s-.146-.323-.333-.323-.333.146-.333.323.146.323.333.323zm-1.062-1.02c.187 0 .333-.146.333-.323a.333.333 0 0 0-.333-.323c-.187 0-.344.146-.344.323 0 .187.156.323.344.323zm9.244 7.964c.281.146.5.083.77-.01-.448-.219-.687-.416-.479-.926.094-.229.208-.406.458-.479-.156-1.988-.729-2.936-2.602-3.841l-.135.042c0 .021.01.042.01.073 0 .271-.156.406-.364.552.333.062.635.219.635.604 0 .323-.229.5-.52.583.094.177.115.25.094.458.385.177.468.406.364.791-.146.541-.479.593-1.01.458a.739.739 0 0 0 1.332.552c0-.052.01-.094.021-.146.083-.312.416-.51.75-.427s.531.406.437.718c-.031.104-.083.187-.156.26-.01.312.125.593.396.739zm-8.703-7.277c0-.042.01-.083.01-.135-2.446-.177-4.206 1.437-4.445 3.706.219.083.302.177.396.385.427-.021.614.146.718.52.146.531-.125.739-.656.874.156.344.479.583.895.479a.71.71 0 0 0 .552-.697.552.552 0 0 1-.094-.312c0-.323.271-.593.614-.593.333 0 .614.26.614.593a.59.59 0 0 1-.031.187.73.73 0 0 0 .718.531c.427 0 .677-.302.739-.677-.541 0-.854-.135-.854-.687 0-.396.146-.593.562-.677.094-.489.354-.52.77-.583.427.073.677.094.77.583.416.083.562.281.562.677 0 .552-.312.687-.854.687.062.375.312.677.739.677a.75.75 0 0 0 .718-.531.589.589 0 0 1-.031-.187c0-.323.271-.593.614-.593s.614.26.614.593a.55.55 0 0 1-.094.312c.01.333.219.614.552.697.416.104.739-.135.895-.479-.531-.135-.791-.344-.656-.874.104-.375.291-.541.718-.52.104-.208.177-.302.396-.385-.239-2.269-1.988-3.883-4.445-3.706a.55.55 0 0 1 .01.135c0 .115-.042.208-.104.302v.573c.062.094.104.187.104.302s-.042.208-.104.302l.01.593c.052.083.094.177.094.281 0 .344-.26.437-.52.552-.26-.115-.52-.219-.52-.552 0-.115.042-.208.104-.302v-.562a.529.529 0 0 1-.104-.302c0-.115.042-.208.104-.302v-.583a.598.598 0 0 1-.083-.302zM7.526 9.82c.198.51-.031.708-.479.926.271.094.489.156.77.01a.7.7 0 0 0 .375-.718.603.603 0 0 1-.156-.26.614.614 0 0 1 .448-.729.614.614 0 0 1 .77.573c.468.593 1.416.281 1.332-.552-.531.125-.864.073-1.01-.458-.104-.375-.021-.614.364-.791a.69.69 0 0 1 .094-.458c-.291-.083-.52-.26-.52-.583 0-.396.302-.541.635-.604-.198-.156-.354-.281-.354-.552 0-.021 0-.052-.135-.094-1.905.906-2.436 1.822-2.602 3.831.26.062.375.229.468.458zm16.198 1.884c-2.342-1.062-4.966-1.666-7.724-1.666s-5.371.593-7.714 1.655c-.156.073-.333 0-.406-.146-.073-.156 0-.271.073-.396-.479.146-.833.146-1.249-.167-.77.5-1.655-.531-1.072-.999-.271-.344-.271-.718.125-.968a.599.599 0 0 1-.115-.354c0-.385.302-.541.635-.604-.198-.146-.354-.281-.354-.552 0-.396.323-.562.666-.593-.094-.146-.167-.25-.167-.427 0-.323.271-.583.614-.583.104 0 .208.031.302.062-.062-.135-.115-.239-.115-.385 0-.323.271-.583.614-.583.167 0 .26.062.406.125a.885.885 0 0 1-.042-.229c0-.323.271-.593.614-.593.187 0 .291.073.437.167.073-.312.25-.562.614-.562.271 0 .427.146.562.344.146-.156.281-.26.51-.26.094 0 .177.021.271.042a.764.764 0 0 1-.094-.333c0-.323.271-.583.604-.583.198 0 .302.083.458.177-.01-.073-.042-.167-.042-.25 0-.323.271-.583.614-.583.198 0 .302.073.448.177.073-.312.25-.562.625-.562.229 0 .354.094.5.239.115-.25.281-.427.593-.427a.66.66 0 0 1 .239.052 1.07 1.07 0 0 1 .625-.364V.951h-.51V.576h.51V.129h.406v.448h.51v.364h-.51v.625a1.1 1.1 0 0 1 .625.364.66.66 0 0 1 .239-.052c.312 0 .479.187.593.427.146-.146.281-.239.5-.239.375 0 .552.26.614.562.146-.104.26-.177.458-.177.333 0 .614.26.614.583 0 .083-.021.177-.031.25.156-.094.26-.167.458-.167.333 0 .614.26.614.583 0 .125-.042.219-.094.333a1.13 1.13 0 0 1 .271-.042c.229 0 .364.104.51.26.135-.208.291-.344.562-.344.375 0 .552.26.625.562.146-.094.25-.167.437-.167.333 0 .614.26.614.593 0 .073-.021.156-.031.229.135-.073.239-.125.396-.125.333 0 .614.26.614.583 0 .146-.052.25-.115.375.104-.031.198-.062.312-.062.333 0 .614.26.614.583 0 .177-.073.281-.167.427.354.031.677.198.677.593 0 .271-.156.406-.354.552.333.073.635.219.635.604 0 .146-.042.239-.115.354.406.25.396.614.125.958.354.281.167.718-.125.947-.302.229-.614.271-.947.052-.416.312-.77.312-1.249.167l.073.146c.094.26-.146.52-.416.427zm-14.636.593l-.5-.177-.042-.073c-.042.021-.073.021-.104.031-.135.01-.125-.135-.062-.167 2.311-1.051 4.882-1.634 7.61-1.634s5.299.583 7.61 1.634c.062.031.073.177-.062.167-.031 0-.062-.01-.104-.031l-.042.073-.5.177.146.552-.042.094c.26.115.083.302-.031.25-2.124-.968-4.487-1.499-6.985-1.499s-4.861.531-6.985 1.499c-.052.021-.115 0-.146-.062s0-.104.042-.146c.021-.021.052-.031.083-.042l-.042-.094zm2.759-.406l1.062-.718-1.291-.135-1.062.718zm10.472.666c.239 0 .437-.187.437-.416s-.198-.416-.437-.416-.437.187-.437.416c.01.229.198.416.437.416zm-8.474-1.083c.239 0 .437-.187.437-.416s-.198-.416-.437-.416-.437.187-.437.416.198.416.437.416zm-4.164 1.083c.239 0 .437-.187.437-.416s-.187-.416-.437-.416c-.239 0-.437.187-.437.416s.198.416.437.416zm8.474-1.083c.239 0 .437-.187.437-.416s-.198-.416-.437-.416a.42.42 0 0 0-.427.416c0 .229.198.416.427.416zm1.999.416l1.291-.135-1.062-.718-1.291.135zm-2.8-.947L16 10.455l-1.353.489 1.353.489zM1.988 27.559c0 7.443 6.308 13.533 14.012 13.533 7.714 0 14.022-6.09 14.022-13.533 0-7.464-6.308-13.533-14.022-13.533S1.988 20.095 1.988 27.559zm29.554 0c0 8.255-6.975 15.001-15.542 15.001S.458 35.814.458 27.559c0-8.265 6.975-15.011 15.542-15.011 8.567-.01 15.542 6.735 15.542 15.011zM13.96 21.177l2.03 1.999 1.895-1.936c-.666-.167-1.301-.291-1.999-.312-.645-.031-1.301.115-1.926.25zm5.34-1.395l2.977-2.967c3.852 2.134 6.444 6.131 6.444 10.701 0 2.977-1.093 5.705-2.936 7.839l-1.385-1.343c1.561-1.843 2.582-3.675 2.582-6.61 0-3.133-1.697-6.631-4.403-8.442l-1.79 1.77c.916.666 1.645 1.332 2.259 2.269l-1.364 1.135c-.541-.916-1.239-1.561-2.134-2.155l-3.56 3.623-3.696-3.675c-1.915 1.291-3.04 3.133-3.092 5.424-.062 3.05 1.978 5.163 4.841 6.09v-6.121h4.372v1.26H15.74v1.634h2.644v1.437H15.74v2.061c1.957.094 4.049-.999 5.319-2.353l1.312 1.28c-1.676 1.874-4.091 2.821-6.621 2.842v1.884h-1.697v-2.082c-3.862-.926-6.662-4.195-6.61-8.099.031-2.675 1.509-4.872 3.654-6.433l-1.811-1.811c-2.811 2.217-4.32 4.924-4.445 8.442-.094 3.113 1.572 5.611 2.623 6.662l-1.218 1.197c-1.884-2.124-2.998-4.747-2.998-7.735 0-4.539 2.592-8.536 6.412-10.67l3.019 3.04c1.072-.396 2.186-.604 3.331-.604a9.51 9.51 0 0 1 3.196.604z" fill="#fcbf00"/><path d="M32 27.559c0 8.505-7.183 15.448-16 15.448-8.828 0-16-6.943-16-15.448C0 19.043 7.183 12.09 16 12.09c8.828 0 16 6.954 16 15.469zm-.458 0c0-8.265-6.975-15.011-15.542-15.011S.458 19.293.458 27.559c0 8.255 6.975 15.001 15.542 15.001s15.542-6.746 15.542-15.001zm-29.096 0c0 7.193 6.1 13.085 13.554 13.085s13.554-5.882 13.554-13.085c0-7.214-6.1-13.075-13.554-13.075-7.453-.01-13.554 5.861-13.554 13.075zm-.458 0c0-7.464 6.308-13.533 14.012-13.533 7.714 0 14.022 6.069 14.022 13.533 0 7.443-6.308 13.533-14.022 13.533-7.714-.01-14.012-6.09-14.012-13.533zm15.656-2.988l7.578 7.547c.864-1.374 1.301-2.779 1.301-4.726 0-3.394-1.978-6.485-3.883-7.859l-1.145 1.135a8.67 8.67 0 0 1 2.155 2.415l-2.103 1.759c-.5-.958-1.031-1.634-1.936-2.269zm9.608 9.567c-1.364 2.238-3.446 4.008-5.913 5.07L20.112 38l-2.29-2.259a8.24 8.24 0 0 1-1.614.187v1.895h-2.623v-2.186c-3.935-1.031-6.652-4.591-6.61-8.453.01-.645.104-1.27.26-1.874l-1.291-1.27c-.385 1.041-.604 2.165-.645 3.362-.073 2.394 1.01 4.986 2.811 6.641l-1.895 1.863c-2.228-2.415-3.446-5.132-3.446-8.401 0-4.768 2.707-8.932 6.964-11.222l3.05 3.081c1.01-.354 2.155-.531 3.206-.531 1.135.01 2.165.208 3.092.531l3.102-3.113c4.289 2.301 6.995 6.465 6.995 11.263.01 2.436-.666 4.643-1.926 6.621zm-13.679-2.571L9.66 27.715c.094 2.155 1.457 4.195 3.914 5.101zM19.3 19.782l-.104.104A9.025 9.025 0 0 0 16 19.283c-1.145 0-2.259.208-3.331.604l-3.019-3.04c-3.82 2.124-6.412 6.121-6.412 10.66 0 2.998 1.114 5.611 2.998 7.735l1.218-1.197c-1.051-1.051-2.717-3.55-2.623-6.662.125-3.519 1.634-6.225 4.445-8.442l1.811 1.811c-2.144 1.561-3.623 3.758-3.654 6.433-.052 3.904 2.738 7.172 6.61 8.099v2.082h1.697V35.48c2.54-.021 4.955-.968 6.621-2.842l-1.312-1.28c-1.27 1.353-3.352 2.457-5.319 2.353V31.65h2.644v-1.437h-2.644v-1.634h2.675v-1.26h-4.372v6.121c-2.863-.926-4.913-3.04-4.841-6.09.052-2.29 1.176-4.133 3.092-5.424l3.696 3.675 3.56-3.623c.906.593 1.593 1.239 2.134 2.155l1.364-1.135c-.614-.937-1.343-1.603-2.259-2.269l1.79-1.77c2.707 1.811 4.403 5.309 4.403 8.442 0 2.925-1.02 4.768-2.582 6.61l1.385 1.343a11.91 11.91 0 0 0 2.936-7.839c0-4.57-2.592-8.567-6.444-10.701zm-5.34 1.395c.625-.135 1.28-.281 1.926-.26.697.021 1.332.146 1.999.312l-1.895 1.936zm.926.271l1.093 1.083 1.02-1.041c-.364-.073-.739-.104-1.135-.115-.239-.01-.604.021-.979.073zm8.141-9.088l.094.364.042.125.073-.042.354-.187-.094-.354-.021-.073zm.697-.656c.271.094.51-.177.385-.406l-.073-.146c.479.146.833.146 1.249-.167.333.219.635.177.947-.052.302-.229.479-.666.125-.947.271-.344.281-.718-.125-.958.073-.115.115-.208.115-.354 0-.385-.302-.541-.635-.604.198-.156.354-.281.354-.552 0-.396-.323-.562-.677-.593.094-.146.167-.239.167-.427 0-.323-.271-.583-.614-.583-.104 0-.208.031-.312.062.062-.135.115-.229.115-.375 0-.323-.271-.583-.614-.583-.167 0-.26.052-.396.125.01-.073.031-.156.031-.229a.604.604 0 0 0-.614-.593c-.187 0-.291.073-.437.167-.073-.312-.25-.562-.625-.562-.271 0-.427.146-.562.344-.146-.156-.281-.26-.51-.26-.094 0-.187.021-.271.042.052-.115.094-.208.094-.333 0-.323-.271-.583-.614-.583-.198 0-.302.073-.458.167.01-.073.031-.167.031-.25 0-.323-.271-.583-.614-.583-.198 0-.302.073-.458.177-.073-.312-.25-.562-.614-.562-.229 0-.354.094-.5.239-.125-.25-.281-.427-.593-.427-.094 0-.156.021-.239.052a1.07 1.07 0 0 0-.625-.364V.961h.51V.576h-.51V.129h-.406v.448h-.51v.364h.51v.625c-.26.062-.427.156-.625.364a.661.661 0 0 0-.239-.052c-.312 0-.479.187-.593.427-.146-.146-.281-.239-.5-.239-.375 0-.552.26-.625.562-.146-.104-.26-.177-.448-.177-.333 0-.614.26-.614.583 0 .083.021.177.042.25-.156-.094-.271-.177-.458-.177a.593.593 0 0 0-.604.583c0 .125.042.219.094.333-.094-.021-.177-.042-.271-.042-.229 0-.364.104-.51.26-.135-.208-.291-.344-.562-.344-.375 0-.552.26-.614.562-.115-.083-.229-.156-.416-.156a.604.604 0 0 0-.614.593c0 .073.021.156.031.229A.714.714 0 0 0 7.828 5c-.333 0-.614.26-.614.583 0 .146.052.25.115.375-.094-.021-.187-.052-.302-.052-.333 0-.614.26-.614.583 0 .177.073.281.167.427-.344.031-.656.198-.656.593 0 .271.156.406.354.552-.333.073-.635.219-.635.604 0 .146.042.239.115.354-.396.25-.396.625-.125.968-.583.468.302 1.509 1.072.999.416.312.77.312 1.249.167-.062.135-.146.25-.073.396a.3.3 0 0 0 .406.146c2.342-1.062 4.955-1.655 7.714-1.655 2.769.01 5.382.604 7.724 1.666zm-14.751.656l-.323-.115-.125-.042-.021.073-.094.344.354.187.073.042.031-.135zm-.208.562l-.468-.25.115-.448c-.177-.021-.26-.219-.177-.354a.461.461 0 0 1-.479-.25c-.042-.083-.052-.167-.042-.25a1.32 1.32 0 0 1-1.01-.208c-.822.479-1.79-.666-1.26-1.197-.239-.344-.177-.76.125-.989a.629.629 0 0 1-.073-.312c0-.302.198-.562.468-.677a.705.705 0 0 1-.187-.479c0-.344.25-.625.573-.708a.629.629 0 0 1-.073-.312c0-.406.333-.729.75-.729H7.1a.736.736 0 0 1 .729-.906.81.81 0 0 1 .229.031c0-.396.344-.718.75-.718a.76.76 0 0 1 .344.083c.104-.281.385-.479.708-.479a.76.76 0 0 1 .583.271.75.75 0 0 1 .5-.177h.052c-.01-.052-.021-.104-.021-.156 0-.406.333-.729.75-.729.104 0 .198.021.281.052.01-.396.344-.718.75-.718.135 0 .26.031.364.094.104-.281.385-.479.708-.479.177 0 .333.052.458.156.135-.198.364-.333.635-.333.073 0 .135.01.198.031.125-.125.271-.219.448-.291l.073-.031v-.375h-.51V.441h.51v-.448h.697v.448h.51v.645h-.51v.375l.073.031a1.15 1.15 0 0 1 .448.291c.062-.021.125-.031.198-.031.271 0 .5.135.635.333.125-.094.291-.156.458-.156.323 0 .604.198.708.479.104-.062.229-.094.364-.094.416 0 .75.323.75.718.083-.031.177-.052.281-.052.416 0 .75.323.75.729 0 .052 0 .104-.021.156h.052a.833.833 0 0 1 .5.177c.135-.167.344-.271.583-.271.323 0 .604.198.708.479a.76.76 0 0 1 .344-.083c.416 0 .75.323.75.718a.812.812 0 0 1 .229-.031c.416 0 .75.323.75.729 0 .062-.01.125-.021.187h.073c.416 0 .75.323.75.729 0 .115-.031.219-.073.312.333.073.573.364.573.708a.71.71 0 0 1-.198.489.72.72 0 0 1 .479.677c0 .115-.031.219-.073.312.302.229.364.645.125.989.333.333.042.864-.239 1.083-.271.208-.656.333-1.031.115-.291.198-.656.281-1.01.208.042.291-.229.541-.52.5.083.135 0 .333-.177.354l.115.448-.468.25c.062.073.073.177.031.271-.062.125-.208.198-.344.135-2.103-.958-4.445-1.489-6.933-1.489a16.65 16.65 0 0 0-6.923 1.489c-.135.062-.281-.01-.344-.135.01-.115.021-.219.083-.291zm.323-.625l-.146.552.042.094c-.021.01-.052.021-.083.042-.042.031-.073.073-.042.146.031.062.094.083.146.062 2.124-.968 4.487-1.499 6.985-1.499 2.509 0 4.861.531 6.985 1.499.104.052.291-.135.031-.25l.042-.094-.146-.552.5-.177.042-.073c.042.021.073.021.104.031.135.01.125-.135.062-.167A18.307 18.307 0 0 0 16 10.278c-2.727 0-5.299.583-7.61 1.634-.062.031-.073.177.062.167.031 0 .062-.01.104-.031l.031.073zm11.43-6.433c-.593-1.447-1.988-2.478-3.841-2.384 0 .125-.042.239-.104.344v.489c.062.104.104.219.104.344s-.042.25-.104.344v.312c1.27-.167 2.769-.042 3.945.552zM16.562 5.5a.621.621 0 0 1-.146.843c.229.073.406.239.468.531.458.104.583.437.583.791 0 .427-.177.791-.822.822.073.239.302.406.573.406a.59.59 0 0 0 .562-.396c-.021-.062-.021-.125-.021-.187 0-.406.344-.729.76-.729s.76.323.76.729c0 .125-.031.239-.094.344.01.25.187.458.448.531.26.062.52-.042.656-.26-.614-.187-.697-.583-.583-.999.094-.344.302-.635.76-.625.083-.167.198-.271.333-.333-.042-.344-.115-.666-.239-.979-1.208-.645-2.779-.76-3.997-.583zm-1.083-2.02c0 .115.042.208.104.302v.573c-.062.094-.104.187-.104.302s.042.208.104.302v.583c-.062.094-.104.187-.104.302 0 .344.26.437.52.552.26-.115.52-.219.52-.552 0-.104-.031-.208-.094-.281l-.01-.593c.062-.094.104-.187.104-.302s-.042-.208-.104-.302v-.583c.062-.094.104-.187.104-.302 0-.042-.01-.083-.01-.135 2.446-.177 4.206 1.437 4.445 3.706-.219.083-.302.177-.396.385-.427-.021-.614.146-.718.52-.146.531.125.739.656.874-.156.344-.479.583-.895.479a.711.711 0 0 1-.552-.697.552.552 0 0 0 .094-.312.604.604 0 0 0-.614-.593.604.604 0 0 0-.614.593.59.59 0 0 0 .031.187.74.74 0 0 1-.718.531c-.427 0-.677-.302-.739-.677.541 0 .854-.135.854-.687 0-.396-.146-.593-.562-.677-.094-.489-.354-.52-.77-.583-.427.073-.677.094-.77.583-.416.083-.562.281-.562.677 0 .552.312.687.854.687-.062.375-.312.677-.739.677a.75.75 0 0 1-.718-.531.59.59 0 0 0 .031-.187.604.604 0 0 0-.614-.593c-.344 0-.614.26-.614.593a.55.55 0 0 0 .094.312c-.01.333-.219.614-.552.697-.416.104-.739-.135-.895-.479.531-.135.791-.344.656-.874-.104-.375-.291-.541-.718-.52-.104-.208-.177-.302-.396-.385.239-2.269 1.988-3.883 4.445-3.706a.36.36 0 0 0-.031.135zM11.43 6c-.115.312-.198.635-.229.979.135.062.25.167.333.333.468-.01.677.281.77.625.115.416.031.812-.583.999.135.208.396.323.656.26s.437-.281.448-.531a.656.656 0 0 1-.094-.344c0-.406.344-.729.76-.729s.76.323.76.729c0 .062-.01.125-.021.187a.6.6 0 0 0 .562.396c.271 0 .489-.167.573-.406-.645-.031-.822-.396-.822-.822 0-.364.125-.687.583-.791a.72.72 0 0 1 .468-.531.652.652 0 0 1-.25-.5c0-.125.042-.25.104-.344v-.104c-1.239-.167-2.811-.052-4.018.593zm3.904-2.519c-1.863-.104-3.248.937-3.852 2.384 1.166-.583 2.675-.729 3.945-.552V5c-.062-.104-.104-.219-.104-.344s.042-.25.104-.344v-.489a.734.734 0 0 1-.094-.344zm7.578 6.621l.042-.031c.083.062.156.104.26.135.042.01.094.01.135.021.052.26.146.468.333.656l-.083.115a19.41 19.41 0 0 0-1.364-.52l.021-.135c.229-.021.468-.104.656-.239zm.042.135c-.125.083-.271.146-.416.187a21.24 21.24 0 0 1 .864.333 1.27 1.27 0 0 1-.177-.406l-.042-.01c-.083-.021-.156-.062-.229-.104zm-7.027-1.759h.146c.052.375.302.697.645.854l-.031.135c-.229-.01-.458-.01-.687-.01s-.458 0-.687.01l-.031-.135c.344-.167.593-.479.645-.854zm.073.281c-.083.219-.229.406-.427.552.146 0 .281-.01.427-.01a5.84 5.84 0 0 1 .427.01A1.301 1.301 0 0 1 16 8.758zm-7.589 2.228l-.083-.115c.187-.198.281-.396.333-.656a.65.65 0 0 0 .385-.146c.219.156.437.25.708.26l.021.135a19.41 19.41 0 0 0-1.364.52zm.198-.229a21.24 21.24 0 0 1 .864-.333c-.146-.042-.291-.104-.416-.187-.062.042-.146.073-.219.094l-.042.01c-.052.146-.104.291-.187.416zm3.383-1.031v.135a18.54 18.54 0 0 0-1.312.323l-.062-.125c.281-.239.448-.604.396-.979l.135-.031c.146.354.468.604.843.677zm-.291.052a1.29 1.29 0 0 1-.541-.427c-.031.229-.115.448-.26.625.26-.073.531-.135.802-.198zm1.218-.094l-.052-.125c.26-.167.427-.385.531-.666h.083c.083 0 .146-.021.229-.042.177.25.385.427.687.51l-.01.135a31.34 31.34 0 0 0-1.468.187zm.583-.645c-.073.177-.187.333-.333.468l.926-.115a1.27 1.27 0 0 1-.437-.375c-.052.01-.104.021-.156.021zm4.112.468l-.01-.135a1.31 1.31 0 0 0 .687-.51c.083.021.146.042.229.042h.083c.104.281.271.5.531.666l-.052.125c-.479-.083-.968-.146-1.468-.187zm.885-.468a.614.614 0 0 1-.146-.021c-.115.156-.271.281-.448.375.312.031.625.062.926.115a1.49 1.49 0 0 1-.323-.437zm2.894 1.02l-.062.125c-.427-.125-.864-.229-1.312-.323v-.135c.364-.073.687-.323.833-.666l.135.031a1.08 1.08 0 0 0 .406.968zm-.281-.083c-.146-.177-.239-.396-.26-.625-.135.187-.333.333-.541.427l.802.198zm.208-2.384c-.323-.083-.656.104-.739.416s.115.635.437.708c.323.083.656-.104.739-.416s-.115-.635-.437-.708zm.021-.094c.375.094.604.458.51.822s-.479.583-.854.489a.679.679 0 0 1-.51-.822c.094-.364.479-.583.854-.489zm.531-1.051c-.187 0-.333.146-.333.323s.156.323.333.323c.187 0 .333-.146.333-.323a.32.32 0 0 0-.333-.323zm0-.094c.239 0 .437.187.437.416s-.198.416-.437.416-.437-.187-.437-.416.198-.416.437-.416zm-.281-1.072c-.187 0-.333.146-.333.323s.156.323.333.323c.187 0 .333-.146.333-.323s-.146-.323-.333-.323zm0-.094c.239 0 .437.187.437.416s-.198.416-.437.416-.437-.187-.437-.416.198-.416.437-.416zm4.164 3.154c-.187 0-.333.146-.333.323s.146.323.333.323.333-.146.333-.323-.146-.323-.333-.323zm0-.094c.239 0 .437.187.437.416s-.198.416-.437.416-.437-.187-.437-.416.198-.416.437-.416zm-.281-1.062c-.187 0-.333.146-.333.323s.146.323.333.323.333-.146.333-.323-.146-.323-.333-.323zm0-.094c.239 0 .437.187.437.416s-.198.416-.437.416-.437-.187-.437-.416c.01-.229.198-.416.437-.416zm-.5-.926c-.187 0-.333.146-.333.323s.156.323.333.323c.187 0 .333-.146.333-.323s-.146-.323-.333-.323zm0-.094c.239 0 .437.187.437.416s-.198.416-.437.416-.437-.187-.437-.416.198-.416.437-.416zm-.802-.812c-.187 0-.333.146-.333.323s.146.323.333.323.333-.146.333-.323-.146-.323-.333-.323zm0-.094c.239 0 .437.187.437.416S24.422 6 24.172 6c-.239 0-.437-.187-.437-.416.01-.229.198-.416.437-.416zm-.979-.593c-.187 0-.333.146-.333.323s.146.323.333.323.333-.146.333-.323-.146-.323-.333-.323zm0-.094c.239 0 .437.187.437.416s-.198.416-.437.416-.437-.187-.437-.416.198-.416.437-.416zm-1.062-.312c-.187 0-.333.146-.333.323s.146.323.333.323.333-.146.333-.323c.01-.177-.146-.323-.333-.323zm0-.094c.239 0 .437.187.437.416s-.198.416-.437.416-.437-.187-.437-.416c.01-.229.198-.416.437-.416zm-1.072.187c-.187 0-.333.146-.333.323s.146.323.333.323.333-.146.333-.323-.146-.323-.333-.323zm0-.094c.239 0 .437.187.437.416S21.299 5 21.059 5s-.437-.187-.437-.416.198-.416.437-.416zm-.791-.791c-.187 0-.333.146-.333.323s.146.323.333.323.333-.146.333-.323c.01-.177-.146-.323-.333-.323zm0-.083c.239 0 .437.187.437.416s-.198.416-.437.416-.437-.187-.437-.416c.01-.229.198-.416.437-.416zm-1.031-.573c-.187 0-.333.146-.333.323s.146.323.333.323.333-.146.333-.323-.146-.323-.333-.323zm0-.094c.239 0 .437.187.437.416s-.198.416-.437.416-.437-.187-.437-.416c.01-.229.198-.416.437-.416zm-1.072-.291c-.187 0-.333.146-.333.323s.146.323.333.323.333-.146.333-.323c.01-.177-.146-.323-.333-.323zm0-.094c.239 0 .437.187.437.416s-.198.416-.437.416-.437-.187-.437-.416c.01-.229.198-.416.437-.416zm-1.093-.094c-.187 0-.333.146-.333.323s.146.323.333.323.333-.146.333-.323-.146-.323-.333-.323zm0-.094c.239 0 .437.187.437.416s-.198.416-.437.416a.42.42 0 0 1-.427-.416c-.01-.229.187-.416.427-.416zm-10.399 8.64c.291-.156.396-.51.239-.791a.616.616 0 0 0-.822-.229c-.291.156-.396.51-.239.791s.531.385.822.229zm.042.083c-.344.177-.76.062-.947-.271a.659.659 0 0 1 .281-.916c.344-.177.77-.062.947.271a.66.66 0 0 1-.281.916zm4.268-2.061c.323-.083.52-.396.437-.708s-.416-.5-.739-.416-.52.396-.437.708a.61.61 0 0 0 .739.416zm.031.094a.702.702 0 0 1-.854-.489.67.67 0 0 1 .51-.822c.375-.094.76.125.854.489s-.135.729-.51.822zM16 8.103c.333 0 .604-.26.604-.583A.593.593 0 0 0 16 6.937a.593.593 0 0 0-.604.583c0 .323.271.583.604.583zm0 .094a.687.687 0 0 1-.697-.677c0-.375.312-.677.697-.677s.697.302.697.677c.01.375-.312.677-.697.677zm-5.861-1.103c.187 0 .333-.146.333-.323s-.146-.323-.333-.323-.333.146-.333.323c-.01.177.146.323.333.323zm0 .094a.42.42 0 0 1-.427-.416c0-.229.198-.416.427-.416.239 0 .437.187.437.416-.01.229-.198.416-.437.416zm.281-1.26c.187 0 .333-.146.333-.323s-.146-.323-.333-.323-.333.146-.333.323c-.01.177.146.323.333.323zm0 .094c-.239 0-.437-.187-.437-.416s.198-.416.437-.416.437.187.437.416c-.01.229-.208.416-.437.416zM6.246 8.998c.187 0 .333-.146.333-.323s-.146-.323-.333-.323-.333.146-.333.323.146.323.333.323zm0 .094c-.239 0-.437-.187-.437-.416s.198-.416.437-.416a.42.42 0 0 1 .427.416c.01.229-.187.416-.427.416zm.281-1.26c.187 0 .333-.146.333-.323a.333.333 0 0 0-.333-.323c-.187 0-.333.146-.333.323s.146.323.333.323zm0 .094c-.239 0-.437-.187-.437-.416s.198-.416.437-.416.437.187.437.416-.198.416-.437.416zm.5-1.114c.187 0 .333-.146.333-.323s-.146-.323-.333-.323-.333.146-.333.323.156.323.333.323zm0 .094c-.239 0-.437-.187-.437-.416s.198-.416.437-.416.437.187.437.416-.198.416-.437.416zm.802-.999c.187 0 .333-.146.333-.323s-.146-.323-.333-.323-.333.146-.333.323.146.323.333.323zm0 .094c-.239 0-.437-.187-.437-.416s.198-.416.437-.416.437.187.437.416S8.068 6 7.828 6zm.979-.781c.187 0 .333-.146.333-.323s-.146-.323-.333-.323-.333.146-.333.323.156.323.333.323zm0 .094c-.239 0-.437-.187-.437-.416s.198-.416.437-.416.437.187.437.416-.198.416-.437.416zm1.062-.489c.187 0 .333-.146.333-.323s-.146-.323-.333-.323-.333.146-.333.323.146.323.333.323zm0 .094c-.239 0-.437-.187-.437-.416s.198-.416.437-.416.437.187.437.416c-.01.229-.198.416-.437.416zm1.072-.01c.187 0 .333-.146.333-.323s-.146-.323-.333-.323-.333.146-.333.323.146.323.333.323zm0 .094c-.239 0-.437-.187-.437-.416s.198-.416.437-.416.437.187.437.416S11.18 5 10.941 5zm.791-.968c.187 0 .333-.146.333-.323s-.146-.323-.333-.323-.333.146-.333.323.146.323.333.323zm0 .094c-.239 0-.437-.187-.437-.416s.198-.416.437-.416.437.187.437.416-.198.416-.437.416zm1.031-.76c.187 0 .333-.146.333-.323s-.146-.323-.333-.323-.333.146-.333.323.146.323.333.323zm0 .094c-.239 0-.437-.187-.437-.416s.198-.416.437-.416.437.187.437.416-.198.416-.437.416zm1.072-.479c.187 0 .333-.146.333-.323s-.146-.323-.333-.323-.333.146-.333.323.146.323.333.323zm0 .094c-.239 0-.437-.187-.437-.416s.198-.416.437-.416.437.187.437.416-.198.416-.437.416zM16 6.166c.187 0 .333-.146.333-.323s-.146-.323-.333-.323-.333.146-.333.323.146.323.333.323zm0 .094c-.239 0-.437-.187-.437-.416s.198-.416.437-.416.437.187.437.416-.198.416-.437.416zm0-1.27c.187 0 .333-.146.333-.323s-.146-.323-.333-.323-.333.146-.333.323.146.323.333.323zm0 .094c-.239 0-.437-.187-.437-.416s.198-.416.437-.416.437.187.437.416-.198.416-.437.416zm0-1.27c.187 0 .333-.146.333-.323s-.146-.323-.333-.323-.333.146-.333.323.146.323.333.323zm0 .083c-.239 0-.437-.187-.437-.416s.198-.416.437-.416.437.187.437.416c0 .239-.198.416-.437.416zm-1.062-1.103c.187 0 .333-.146.333-.323a.333.333 0 0 0-.333-.323c-.187 0-.344.146-.344.323 0 .187.156.323.344.323zm0 .104c-.239 0-.437-.187-.437-.416s.198-.416.437-.416.437.187.437.416c-.01.229-.198.416-.437.416zM25.91 9.674a.619.619 0 0 0-.822.229c-.156.281-.052.635.239.791a.62.62 0 0 0 .822-.229.56.56 0 0 0-.239-.791zm.052-.083c.344.177.458.593.271.916a.718.718 0 0 1-.958.271.656.656 0 0 1-.271-.916.718.718 0 0 1 .958-.271zM7.526 9.82c-.094-.229-.208-.406-.458-.479.167-2.009.697-2.925 2.582-3.841.167.062.156.083.156.104 0 .271.156.406.354.552-.333.073-.635.219-.635.614 0 .323.229.5.52.583-.094.177-.115.25-.094.458-.385.177-.468.416-.375.791.146.531.479.593 1.01.458a.739.739 0 0 1-1.332.552c0-.052-.01-.094-.021-.146-.083-.302-.416-.489-.75-.416-.323.083-.531.406-.448.718.031.104.083.187.156.26.031.302-.104.573-.375.718-.281.146-.5.083-.77-.01.448-.208.677-.406.479-.916zm.031-2.176c-.187.448-.281.968-.344 1.603.219.094.364.312.448.531.135.333.135.677-.239.937a.51.51 0 0 0 .323-.073c.208-.115.323-.323.312-.541a.791.791 0 0 1-.156-.291c-.104-.396.146-.791.541-.885a.77.77 0 0 1 .926.52c.01.042.021.083.021.125.344.406 1.031.198 1.062-.333-.635.125-.906-.187-1.01-.604-.094-.344-.052-.697.354-.906a.82.82 0 0 1 .042-.291.731.731 0 0 1-.437-.531c-.364.073-.77.177-1.103.312-.323.115-.562.281-.739.427zM9.66 5.646c-1.051.531-1.666 1.072-2.03 1.822a2.56 2.56 0 0 1 .625-.333c.344-.135.76-.239 1.124-.312V6.77c0-.302.198-.573.468-.677a.73.73 0 0 1-.187-.448zm14.522 5.111a.716.716 0 0 1-.375-.718c.073-.073.125-.156.156-.26a.593.593 0 0 0-.437-.718.614.614 0 0 0-.77.573c-.468.593-1.416.281-1.332-.552.531.125.864.073 1.01-.458.104-.375.01-.614-.364-.791a.69.69 0 0 0-.094-.458c.291-.083.52-.26.52-.583 0-.396-.302-.541-.635-.604.198-.156.364-.281.364-.552 0-.021 0-.052-.01-.073l.135-.042c1.874.906 2.446 1.853 2.613 3.841-.26.073-.375.25-.458.479-.198.51.031.708.479.926-.302.073-.52.135-.802-.01zM22.61 6.905c-.052.239-.219.437-.448.531a.66.66 0 0 1 .042.291c.416.208.448.562.354.906-.115.416-.375.729-1.01.604.031.531.718.739 1.062.333 0-.042.01-.083.021-.125.104-.385.52-.625.916-.52.406.104.645.5.541.885-.031.104-.083.208-.156.281a.59.59 0 0 0 .635.614c-.375-.25-.375-.593-.239-.937.083-.219.219-.437.448-.531-.052-.635-.156-1.155-.344-1.603a2.56 2.56 0 0 0-.739-.427c-.312-.115-.729-.219-1.083-.302zm-.271-1.28c-.01.177-.083.344-.198.458a.72.72 0 0 1 .479.677v.052c.375.083.77.177 1.124.312.25.094.458.208.625.333-.364-.739-.979-1.28-2.03-1.832zm-2.186 6.267l-1.062-.718 1.291-.135 1.062.718zm-1.999-.416a.42.42 0 0 1-.427-.416c0-.229.198-.416.427-.416.239 0 .437.187.437.416s-.198.416-.437.416zm0-.094c.187 0 .333-.146.333-.323s-.146-.323-.333-.323-.333.146-.333.323.156.323.333.323zm-8.474 1.083c.187 0 .333-.146.333-.323s-.146-.323-.333-.323-.333.146-.333.323.146.323.333.323zm0 .094c-.239 0-.437-.187-.437-.416s.198-.416.437-.416.437.187.437.416c-.01.229-.198.416-.437.416zm4.164-1.176c.187 0 .333-.146.333-.323a.333.333 0 0 0-.333-.323c-.187 0-.333.146-.333.323-.01.177.146.323.333.323zm0 .094c-.239 0-.437-.187-.437-.416s.198-.416.437-.416.437.187.437.416c-.01.229-.198.416-.437.416zm8.474.989c.187 0 .333-.146.333-.323s-.146-.323-.333-.323-.333.146-.333.323.146.323.333.323zm0 .094c-.239 0-.437-.187-.437-.416s.198-.416.437-.416.437.187.437.416-.198.416-.437.416zm-10.472-.666l-1.291-.135 1.062-.718 1.291.135zm5.236-.947L16 10.559l-1.072.385L16 11.33zm.271 0L16 11.434l-1.353-.489L16 10.455z" fill="#004996"/></svg>